<?xml version="1.0" encoding="UTF-8" standalone="no"?>
<!DOCTYPE svg PUBLIC "-//W3C//DTD SVG 1.1//EN"
 "http://www.w3.org/Graphics/SVG/1.1/DTD/svg11.dtd">
<!-- Generated by graphviz version 2.44.1 (20200629.0846)
 -->
<!-- Title: nfa Pages: 1 -->
<svg width="142pt" height="116pt"
 viewBox="0.00 0.00 141.70 115.85" xmlns="http://www.w3.org/2000/svg" xmlns:xlink="http://www.w3.org/1999/xlink">
<g id="graph0" class="graph" transform="scale(1 1) rotate(0) translate(4 111.85)">
<title>nfa</title>
<polygon fill="white" stroke="transparent" points="-4,4 -4,-111.85 137.7,-111.85 137.7,4 -4,4"/>
<!-- regex -->
<g id="node1" class="node">
<title>regex</title>
<path fill="none" stroke="black" d="M48,-60C48,-60 12,-60 12,-60 6,-60 0,-54 0,-48 0,-48 0,-12 0,-12 0,-6 6,0 12,0 12,0 48,0 48,0 54,0 60,-6 60,-12 60,-12 60,-48 60,-48 60,-54 54,-60 48,-60"/>
<text text-anchor="start" x="4" y="-23.8" font-family="Times New Roman,serif" font-size="24.00">None</text>
</g>
<!-- * -->
<!-- 0 -->
<g id="node3" class="node">
<title>0</title>
<ellipse fill="none" stroke="black" cx="114.85" cy="-89" rx="18.7" ry="18.7"/>
<text text-anchor="start" x="108.35" y="-86.3" font-family="Times New Roman,serif" font-size="14.00">q</text>
<text text-anchor="start" x="116.35" y="-86.3" font-family="Times New Roman,serif" baseline-shift="sub" font-size="11.00">0</text>
</g>
<!-- *&#45;&gt;0 -->
<g id="edge1" class="edge">
<title>*&#45;&gt;0</title>
<path fill="none" stroke="black" d="M35,-89C44.06,-89 66.86,-89 85.63,-89"/>
<polygon fill="black" stroke="black" points="85.8,-92.5 95.8,-89 85.8,-85.5 85.8,-92.5"/>
</g>
</g>
</svg>
