<?xml version="1.0" encoding="UTF-8" standalone="no"?>
<!DOCTYPE svg PUBLIC "-//W3C//DTD SVG 1.1//EN"
 "http://www.w3.org/Graphics/SVG/1.1/DTD/svg11.dtd">
<!-- Generated by graphviz version 2.44.1 (20200629.0846)
 -->
<!-- Title: nfa Pages: 1 -->
<svg width="695pt" height="316pt"
 viewBox="0.00 0.00 695.18 316.35" xmlns="http://www.w3.org/2000/svg" xmlns:xlink="http://www.w3.org/1999/xlink">
<g id="graph0" class="graph" transform="scale(1 1) rotate(0) translate(4 312.35)">
<title>nfa</title>
<polygon fill="white" stroke="transparent" points="-4,4 -4,-312.35 691.18,-312.35 691.18,4 -4,4"/>
<!-- regex -->
<g id="node1" class="node">
<title>regex</title>
<path fill="none" stroke="black" d="M87,-99C87,-99 12,-99 12,-99 6,-99 0,-93 0,-87 0,-87 0,-12 0,-12 0,-6 6,0 12,0 12,0 87,0 87,0 93,0 99,-6 99,-12 99,-12 99,-87 99,-87 99,-93 93,-99 87,-99"/>
<text text-anchor="start" x="4" y="-43.3" font-family="Times New Roman,serif" font-size="24.00">(a|b)*|ca*</text>
</g>
<!-- * -->
<!-- 0 -->
<g id="node3" class="node">
<title>0</title>
<ellipse fill="none" stroke="black" cx="154.85" cy="-127.5" rx="18.7" ry="18.7"/>
<text text-anchor="start" x="148.35" y="-124.8" font-family="Times New Roman,serif" font-size="14.00">q</text>
<text text-anchor="start" x="156.35" y="-124.8" font-family="Times New Roman,serif" baseline-shift="sub" font-size="11.00">0</text>
</g>
<!-- *&#45;&gt;0 -->
<g id="edge18" class="edge">
<title>*&#45;&gt;0</title>
<path fill="none" stroke="black" d="M54.94,-127.5C66.92,-127.5 100.67,-127.5 125.43,-127.5"/>
<polygon fill="black" stroke="black" points="125.73,-131 135.73,-127.5 125.73,-124 125.73,-131"/>
</g>
<!-- 5 -->
<g id="node8" class="node">
<title>5</title>
<ellipse fill="none" stroke="black" cx="253.79" cy="-173.5" rx="18.7" ry="18.7"/>
<text text-anchor="start" x="247.29" y="-170.8" font-family="Times New Roman,serif" font-size="14.00">q</text>
<text text-anchor="start" x="255.29" y="-170.8" font-family="Times New Roman,serif" baseline-shift="sub" font-size="11.00">5</text>
</g>
<!-- 0&#45;&gt;5 -->
<g id="edge1" class="edge">
<title>0&#45;&gt;5</title>
<path fill="none" stroke="black" d="M172.29,-135.3C187.34,-142.44 209.82,-153.11 227.21,-161.36"/>
<polygon fill="black" stroke="black" points="225.73,-164.53 236.27,-165.66 228.73,-158.21 225.73,-164.53"/>
<text text-anchor="middle" x="202.7" y="-158.3" font-family="Times New Roman,serif" font-size="14.00"> &#160;ε &#160;</text>
</g>
<!-- 10 -->
<g id="node13" class="node">
<title>10</title>
<ellipse fill="none" stroke="black" cx="253.79" cy="-98.5" rx="22.2" ry="22.2"/>
<text text-anchor="start" x="244.79" y="-95.8" font-family="Times New Roman,serif" font-size="14.00">q</text>
<text text-anchor="start" x="252.79" y="-95.8" font-family="Times New Roman,serif" baseline-shift="sub" font-size="11.00">10</text>
</g>
<!-- 0&#45;&gt;10 -->
<g id="edge5" class="edge">
<title>0&#45;&gt;10</title>
<path fill="none" stroke="black" d="M172.88,-120.96C178.8,-118.79 185.5,-116.43 191.7,-114.5 201.56,-111.43 212.45,-108.45 222.26,-105.91"/>
<polygon fill="black" stroke="black" points="223.18,-109.29 232.02,-103.44 221.46,-102.5 223.18,-109.29"/>
<text text-anchor="middle" x="202.7" y="-118.3" font-family="Times New Roman,serif" font-size="14.00"> &#160;ε &#160;</text>
</g>
<!-- 1 -->
<g id="node4" class="node">
<title>1</title>
<ellipse fill="none" stroke="black" cx="458.19" cy="-233.5" rx="18.7" ry="18.7"/>
<text text-anchor="start" x="451.69" y="-230.8" font-family="Times New Roman,serif" font-size="14.00">q</text>
<text text-anchor="start" x="459.69" y="-230.8" font-family="Times New Roman,serif" baseline-shift="sub" font-size="11.00">1</text>
</g>
<!-- 8 -->
<g id="node11" class="node">
<title>8</title>
<ellipse fill="none" stroke="black" cx="565.38" cy="-233.5" rx="18.7" ry="18.7"/>
<text text-anchor="start" x="558.88" y="-230.8" font-family="Times New Roman,serif" font-size="14.00">q</text>
<text text-anchor="start" x="566.88" y="-230.8" font-family="Times New Roman,serif" baseline-shift="sub" font-size="11.00">8</text>
</g>
<!-- 1&#45;&gt;8 -->
<g id="edge2" class="edge">
<title>1&#45;&gt;8</title>
<path fill="none" stroke="black" d="M477.51,-233.5C493.65,-233.5 517.42,-233.5 536.01,-233.5"/>
<polygon fill="black" stroke="black" points="536.27,-237 546.27,-233.5 536.27,-230 536.27,-237"/>
<text text-anchor="middle" x="509.78" y="-237.3" font-family="Times New Roman,serif" font-size="14.00"> &#160;a &#160;</text>
</g>
<!-- 2 -->
<g id="node5" class="node">
<title>2</title>
<ellipse fill="none" stroke="black" cx="458.19" cy="-289.5" rx="18.7" ry="18.7"/>
<text text-anchor="start" x="451.69" y="-286.8" font-family="Times New Roman,serif" font-size="14.00">q</text>
<text text-anchor="start" x="459.69" y="-286.8" font-family="Times New Roman,serif" baseline-shift="sub" font-size="11.00">2</text>
</g>
<!-- 7 -->
<g id="node10" class="node">
<title>7</title>
<ellipse fill="none" stroke="black" cx="565.38" cy="-289.5" rx="18.7" ry="18.7"/>
<text text-anchor="start" x="558.88" y="-286.8" font-family="Times New Roman,serif" font-size="14.00">q</text>
<text text-anchor="start" x="566.88" y="-286.8" font-family="Times New Roman,serif" baseline-shift="sub" font-size="11.00">7</text>
</g>
<!-- 2&#45;&gt;7 -->
<g id="edge4" class="edge">
<title>2&#45;&gt;7</title>
<path fill="none" stroke="black" d="M477.51,-289.5C493.65,-289.5 517.42,-289.5 536.01,-289.5"/>
<polygon fill="black" stroke="black" points="536.27,-293 546.27,-289.5 536.27,-286 536.27,-293"/>
<text text-anchor="middle" x="509.78" y="-293.3" font-family="Times New Roman,serif" font-size="14.00"> &#160;b &#160;</text>
</g>
<!-- 3 -->
<g id="node6" class="node">
<title>3</title>
<ellipse fill="none" stroke="black" cx="355.99" cy="-233.5" rx="18.7" ry="18.7"/>
<text text-anchor="start" x="349.49" y="-230.8" font-family="Times New Roman,serif" font-size="14.00">q</text>
<text text-anchor="start" x="357.49" y="-230.8" font-family="Times New Roman,serif" baseline-shift="sub" font-size="11.00">3</text>
</g>
<!-- 3&#45;&gt;1 -->
<g id="edge15" class="edge">
<title>3&#45;&gt;1</title>
<path fill="none" stroke="black" d="M374.9,-233.5C389.91,-233.5 411.61,-233.5 428.95,-233.5"/>
<polygon fill="black" stroke="black" points="429.09,-237 439.09,-233.5 429.09,-230 429.09,-237"/>
<text text-anchor="middle" x="407.09" y="-237.3" font-family="Times New Roman,serif" font-size="14.00"> &#160;ε &#160;</text>
</g>
<!-- 3&#45;&gt;2 -->
<g id="edge9" class="edge">
<title>3&#45;&gt;2</title>
<path fill="none" stroke="black" d="M373.09,-242.5C389.18,-251.49 414.13,-265.43 432.68,-275.8"/>
<polygon fill="black" stroke="black" points="431.02,-278.89 441.46,-280.71 434.44,-272.78 431.02,-278.89"/>
<text text-anchor="middle" x="407.09" y="-270.3" font-family="Times New Roman,serif" font-size="14.00"> &#160;ε &#160;</text>
</g>
<!-- 4 -->
<g id="node7" class="node">
<title>4</title>
<ellipse fill="none" stroke="black" cx="565.38" cy="-64.5" rx="18.7" ry="18.7"/>
<text text-anchor="start" x="558.88" y="-61.8" font-family="Times New Roman,serif" font-size="14.00">q</text>
<text text-anchor="start" x="566.88" y="-61.8" font-family="Times New Roman,serif" baseline-shift="sub" font-size="11.00">4</text>
</g>
<!-- 6 -->
<g id="node9" class="node">
<title>6</title>
<ellipse fill="none" stroke="black" cx="668.33" cy="-33.5" rx="18.7" ry="18.7"/>
<text text-anchor="start" x="661.83" y="-30.8" font-family="Times New Roman,serif" font-size="14.00">q</text>
<text text-anchor="start" x="669.83" y="-30.8" font-family="Times New Roman,serif" baseline-shift="sub" font-size="11.00">6</text>
</g>
<!-- 4&#45;&gt;6 -->
<g id="edge16" class="edge">
<title>4&#45;&gt;6</title>
<path fill="none" stroke="black" d="M583.51,-59.24C599.1,-54.45 622.37,-47.31 640.44,-41.76"/>
<polygon fill="black" stroke="black" points="641.59,-45.07 650.12,-38.78 639.53,-38.37 641.59,-45.07"/>
<text text-anchor="middle" x="620.48" y="-55.3" font-family="Times New Roman,serif" font-size="14.00"> &#160;a &#160;</text>
</g>
<!-- 5&#45;&gt;3 -->
<g id="edge10" class="edge">
<title>5&#45;&gt;3</title>
<path fill="none" stroke="black" d="M270.45,-182.88C286.63,-192.56 312.09,-207.81 330.85,-219.04"/>
<polygon fill="black" stroke="black" points="329.07,-222.06 339.45,-224.19 332.66,-216.05 329.07,-222.06"/>
<text text-anchor="middle" x="304.89" y="-212.3" font-family="Times New Roman,serif" font-size="14.00"> &#160;ε &#160;</text>
</g>
<!-- 13 -->
<g id="node16" class="node">
<title>13</title>
<ellipse fill="none" stroke="black" cx="565.38" cy="-127.5" rx="22.18" ry="22.18"/>
<ellipse fill="none" stroke="black" cx="565.38" cy="-127.5" rx="26.2" ry="26.2"/>
<text text-anchor="start" x="556.38" y="-124.8" font-family="Times New Roman,serif" font-size="14.00">q</text>
<text text-anchor="start" x="564.38" y="-124.8" font-family="Times New Roman,serif" baseline-shift="sub" font-size="11.00">13</text>
</g>
<!-- 5&#45;&gt;13 -->
<g id="edge14" class="edge">
<title>5&#45;&gt;13</title>
<path fill="none" stroke="black" d="M272.7,-170.73C279.35,-169.71 286.97,-168.54 293.89,-167.5 378.43,-154.76 477.89,-140.15 529.44,-132.61"/>
<polygon fill="black" stroke="black" points="530,-136.06 539.39,-131.15 528.99,-129.13 530,-136.06"/>
<text text-anchor="middle" x="407.09" y="-155.3" font-family="Times New Roman,serif" font-size="14.00"> &#160;ε &#160;</text>
</g>
<!-- 11 -->
<g id="node14" class="node">
<title>11</title>
<ellipse fill="none" stroke="black" cx="458.19" cy="-74.5" rx="22.2" ry="22.2"/>
<text text-anchor="start" x="449.19" y="-71.8" font-family="Times New Roman,serif" font-size="14.00">q</text>
<text text-anchor="start" x="457.19" y="-71.8" font-family="Times New Roman,serif" baseline-shift="sub" font-size="11.00">11</text>
</g>
<!-- 6&#45;&gt;11 -->
<g id="edge6" class="edge">
<title>6&#45;&gt;11</title>
<path fill="none" stroke="black" d="M649.93,-27.77C624.91,-20.44 577.56,-9.98 539.28,-21.5 518.27,-27.82 497.69,-41.66 482.65,-53.6"/>
<polygon fill="black" stroke="black" points="480.4,-50.93 474.9,-59.99 484.85,-56.33 480.4,-50.93"/>
<text text-anchor="middle" x="565.38" y="-25.3" font-family="Times New Roman,serif" font-size="14.00"> &#160;ε &#160;</text>
</g>
<!-- 9 -->
<g id="node12" class="node">
<title>9</title>
<ellipse fill="none" stroke="black" cx="668.33" cy="-233.5" rx="18.7" ry="18.7"/>
<text text-anchor="start" x="661.83" y="-230.8" font-family="Times New Roman,serif" font-size="14.00">q</text>
<text text-anchor="start" x="669.83" y="-230.8" font-family="Times New Roman,serif" baseline-shift="sub" font-size="11.00">9</text>
</g>
<!-- 7&#45;&gt;9 -->
<g id="edge8" class="edge">
<title>7&#45;&gt;9</title>
<path fill="none" stroke="black" d="M582.16,-280.75C598.28,-271.8 623.58,-257.77 642.41,-247.32"/>
<polygon fill="black" stroke="black" points="644.29,-250.29 651.33,-242.37 640.89,-244.16 644.29,-250.29"/>
<text text-anchor="middle" x="620.48" y="-268.3" font-family="Times New Roman,serif" font-size="14.00"> &#160;ε &#160;</text>
</g>
<!-- 8&#45;&gt;9 -->
<g id="edge13" class="edge">
<title>8&#45;&gt;9</title>
<path fill="none" stroke="black" d="M584.43,-233.5C599.65,-233.5 621.68,-233.5 639.21,-233.5"/>
<polygon fill="black" stroke="black" points="639.44,-237 649.44,-233.5 639.44,-230 639.44,-237"/>
<text text-anchor="middle" x="620.48" y="-237.3" font-family="Times New Roman,serif" font-size="14.00"> &#160;ε &#160;</text>
</g>
<!-- 9&#45;&gt;5 -->
<g id="edge17" class="edge">
<title>9&#45;&gt;5</title>
<path fill="none" stroke="black" d="M653.77,-221.18C635.39,-205.8 600.88,-181.5 566.38,-181.5 354.99,-181.5 354.99,-181.5 354.99,-181.5 330.58,-181.5 302.94,-179.11 282.88,-176.95"/>
<polygon fill="black" stroke="black" points="283.19,-173.46 272.86,-175.81 282.4,-180.41 283.19,-173.46"/>
<text text-anchor="middle" x="458.19" y="-185.3" font-family="Times New Roman,serif" font-size="14.00"> &#160;ε &#160;</text>
</g>
<!-- 12 -->
<g id="node15" class="node">
<title>12</title>
<ellipse fill="none" stroke="black" cx="355.99" cy="-79.5" rx="22.2" ry="22.2"/>
<text text-anchor="start" x="346.99" y="-76.8" font-family="Times New Roman,serif" font-size="14.00">q</text>
<text text-anchor="start" x="354.99" y="-76.8" font-family="Times New Roman,serif" baseline-shift="sub" font-size="11.00">12</text>
</g>
<!-- 10&#45;&gt;12 -->
<g id="edge11" class="edge">
<title>10&#45;&gt;12</title>
<path fill="none" stroke="black" d="M275.56,-94.56C289.57,-91.91 308.31,-88.35 324.07,-85.36"/>
<polygon fill="black" stroke="black" points="324.74,-88.8 333.91,-83.5 323.43,-81.92 324.74,-88.8"/>
<text text-anchor="middle" x="304.89" y="-95.3" font-family="Times New Roman,serif" font-size="14.00"> &#160;c &#160;</text>
</g>
<!-- 11&#45;&gt;4 -->
<g id="edge3" class="edge">
<title>11&#45;&gt;4</title>
<path fill="none" stroke="black" d="M479.78,-69.6C485.72,-68.37 492.23,-67.21 498.28,-66.5 510.68,-65.05 524.47,-64.48 536.23,-64.29"/>
<polygon fill="black" stroke="black" points="536.39,-67.79 546.37,-64.21 536.34,-60.79 536.39,-67.79"/>
<text text-anchor="middle" x="509.78" y="-70.3" font-family="Times New Roman,serif" font-size="14.00"> &#160;ε &#160;</text>
</g>
<!-- 11&#45;&gt;13 -->
<g id="edge12" class="edge">
<title>11&#45;&gt;13</title>
<path fill="none" stroke="black" d="M478.23,-83.95C490.53,-90.07 506.87,-98.22 521.28,-105.5 524.89,-107.32 528.67,-109.24 532.42,-111.14"/>
<polygon fill="black" stroke="black" points="531.09,-114.39 541.59,-115.82 534.27,-108.16 531.09,-114.39"/>
<text text-anchor="middle" x="509.78" y="-109.3" font-family="Times New Roman,serif" font-size="14.00"> &#160;ε &#160;</text>
</g>
<!-- 12&#45;&gt;11 -->
<g id="edge7" class="edge">
<title>12&#45;&gt;11</title>
<path fill="none" stroke="black" d="M378.24,-78.44C392.06,-77.75 410.31,-76.84 425.79,-76.07"/>
<polygon fill="black" stroke="black" points="426.16,-79.55 435.97,-75.56 425.81,-72.56 426.16,-79.55"/>
<text text-anchor="middle" x="407.09" y="-81.3" font-family="Times New Roman,serif" font-size="14.00"> &#160;ε &#160;</text>
</g>
</g>
</svg>
