<?xml version="1.0" encoding="UTF-8" standalone="no"?>
<!DOCTYPE svg PUBLIC "-//W3C//DTD SVG 1.1//EN"
 "http://www.w3.org/Graphics/SVG/1.1/DTD/svg11.dtd">
<!-- Generated by graphviz version 2.44.1 (20200629.0846)
 -->
<!-- Title: nfa Pages: 1 -->
<svg width="413pt" height="94pt"
 viewBox="0.00 0.00 412.79 93.85" xmlns="http://www.w3.org/2000/svg" xmlns:xlink="http://www.w3.org/1999/xlink">
<g id="graph0" class="graph" transform="scale(1 1) rotate(0) translate(4 89.85)">
<title>nfa</title>
<polygon fill="white" stroke="transparent" points="-4,4 -4,-89.85 408.79,-89.85 408.79,4 -4,4"/>
<!-- regex -->
<g id="node1" class="node">
<title>regex</title>
<path fill="none" stroke="black" d="M22.67,-34C22.67,-34 11.33,-34 11.33,-34 5.67,-34 0,-28.33 0,-22.67 0,-22.67 0,-11.33 0,-11.33 0,-5.67 5.67,0 11.33,0 11.33,0 22.67,0 22.67,0 28.33,0 34,-5.67 34,-11.33 34,-11.33 34,-22.67 34,-22.67 34,-28.33 28.33,-34 22.67,-34"/>
<text text-anchor="start" x="5.5" y="-10.8" font-family="Times New Roman,serif" font-size="24.00">ab</text>
</g>
<!-- * -->
<!-- 0 -->
<g id="node3" class="node">
<title>0</title>
<ellipse fill="none" stroke="black" cx="89.85" cy="-63" rx="18.7" ry="18.7"/>
<text text-anchor="start" x="83.35" y="-60.3" font-family="Times New Roman,serif" font-size="14.00">q</text>
<text text-anchor="start" x="91.35" y="-60.3" font-family="Times New Roman,serif" baseline-shift="sub" font-size="11.00">0</text>
</g>
<!-- *&#45;&gt;0 -->
<g id="edge4" class="edge">
<title>*&#45;&gt;0</title>
<path fill="none" stroke="black" d="M22.22,-63C29.75,-63 46.07,-63 60.68,-63"/>
<polygon fill="black" stroke="black" points="60.86,-66.5 70.86,-63 60.86,-59.5 60.86,-66.5"/>
</g>
<!-- 1 -->
<g id="node4" class="node">
<title>1</title>
<ellipse fill="none" stroke="black" cx="185.54" cy="-63" rx="18.7" ry="18.7"/>
<text text-anchor="start" x="179.04" y="-60.3" font-family="Times New Roman,serif" font-size="14.00">q</text>
<text text-anchor="start" x="187.04" y="-60.3" font-family="Times New Roman,serif" baseline-shift="sub" font-size="11.00">1</text>
</g>
<!-- 0&#45;&gt;1 -->
<g id="edge3" class="edge">
<title>0&#45;&gt;1</title>
<path fill="none" stroke="black" d="M108.91,-63C122.39,-63 141.07,-63 156.48,-63"/>
<polygon fill="black" stroke="black" points="156.53,-66.5 166.53,-63 156.53,-59.5 156.53,-66.5"/>
<text text-anchor="middle" x="137.7" y="-66.8" font-family="Times New Roman,serif" font-size="14.00"> &#160;a &#160;</text>
</g>
<!-- 2 -->
<g id="node5" class="node">
<title>2</title>
<ellipse fill="none" stroke="black" cx="281.24" cy="-63" rx="18.7" ry="18.7"/>
<text text-anchor="start" x="274.74" y="-60.3" font-family="Times New Roman,serif" font-size="14.00">q</text>
<text text-anchor="start" x="282.74" y="-60.3" font-family="Times New Roman,serif" baseline-shift="sub" font-size="11.00">2</text>
</g>
<!-- 1&#45;&gt;2 -->
<g id="edge1" class="edge">
<title>1&#45;&gt;2</title>
<path fill="none" stroke="black" d="M204.61,-63C218.09,-63 236.76,-63 252.18,-63"/>
<polygon fill="black" stroke="black" points="252.23,-66.5 262.23,-63 252.23,-59.5 252.23,-66.5"/>
<text text-anchor="middle" x="233.39" y="-66.8" font-family="Times New Roman,serif" font-size="14.00"> &#160;ε &#160;</text>
</g>
<!-- 3 -->
<g id="node6" class="node">
<title>3</title>
<ellipse fill="none" stroke="black" cx="381.94" cy="-63" rx="18.72" ry="18.72"/>
<ellipse fill="none" stroke="black" cx="381.94" cy="-63" rx="22.7" ry="22.7"/>
<text text-anchor="start" x="375.44" y="-60.3" font-family="Times New Roman,serif" font-size="14.00">q</text>
<text text-anchor="start" x="383.44" y="-60.3" font-family="Times New Roman,serif" baseline-shift="sub" font-size="11.00">3</text>
</g>
<!-- 2&#45;&gt;3 -->
<g id="edge2" class="edge">
<title>2&#45;&gt;3</title>
<path fill="none" stroke="black" d="M300.34,-63C313.86,-63 332.68,-63 348.74,-63"/>
<polygon fill="black" stroke="black" points="348.8,-66.5 358.8,-63 348.8,-59.5 348.8,-66.5"/>
<text text-anchor="middle" x="329.59" y="-66.8" font-family="Times New Roman,serif" font-size="14.00"> &#160;b &#160;</text>
</g>
</g>
</svg>
